<svg xmlns="http://www.w3.org/2000/svg" width="16" height="16" viewBox="0 0 16 16">
    <g fill="none" fill-rule="evenodd">
        <g>
            <g>
                <g>
                    <g>
                        <path fill="#8660CE" fill-rule="nonzero" d="M7.993 1.333c-3.68 0-6.66 2.987-6.66 6.667 0 3.68 2.98 6.667 6.66 6.667 3.687 0 6.674-2.987 6.674-6.667 0-3.68-2.987-6.667-6.674-6.667zm.007 12c-2.947 0-5.333-2.386-5.333-5.333S5.053 2.667 8 2.667 13.333 5.053 13.333 8 10.947 13.333 8 13.333z" transform="translate(-276 -296) translate(261 196) translate(0 40) translate(15 60)"/>
                        <path d="M0 0L16 0 16 16 0 16z" transform="translate(-276 -296) translate(261 196) translate(0 40) translate(15 60)"/>
                        <path fill="#8660CE" fill-rule="nonzero" d="M8.333 4.667L7.333 4.667 7.333 8.667 10.833 10.767 11.333 9.947 8.333 8.167z" transform="translate(-276 -296) translate(261 196) translate(0 40) translate(15 60)"/>
                    </g>
                </g>
            </g>
        </g>
    </g>
</svg>
